<svg xmlns="http://www.w3.org/2000/svg" width="240" height="240" viewBox="0 0 240 240">
  <defs>
    <linearGradient id="brainGradient" x1="0%" y1="0%" x2="100%" y2="100%">
      <stop offset="0%" stop-color="#8367c7" />
      <stop offset="100%" stop-color="#5a3a9d" />
    </linearGradient>
    <linearGradient id="lightningGradient" x1="0%" y1="0%" x2="100%" y2="100%">
      <stop offset="0%" stop-color="#ffd966" />
      <stop offset="100%" stop-color="#f0b429" />
    </linearGradient>
    <filter id="glow" x="-20%" y="-20%" width="140%" height="140%">
      <feGaussianBlur stdDeviation="2" result="blur" />
      <feComposite in="SourceGraphic" in2="blur" operator="over" />
    </filter>
  </defs>
  
  <!-- Brain outline with gradient -->
  <path fill="url(#brainGradient)" d="M120,40 C165,40 190,75 190,110 C190,145 165,170 140,182 C115,194 90,194 65,182 C40,170 30,145 30,110 C30,75 65,40 120,40 Z" />
  
  <!-- Neural connections with glow effect -->
  <g filter="url(#glow)">
    <path stroke="#60cdee" stroke-width="2.5" stroke-linecap="round" d="M70,80 C85,65 100,95 115,80" />
    <path stroke="#60cdee" stroke-width="2.5" stroke-linecap="round" d="M85,120 C110,105 125,135 150,120" />
    <path stroke="#60cdee" stroke-width="2.5" stroke-linecap="round" d="M60,95 C85,120 110,95 135,108" />
    <path stroke="#60cdee" stroke-width="2.5" stroke-linecap="round" d="M90,145 C110,120 125,145 145,130" />
    <path stroke="#60cdee" stroke-width="2.5" stroke-linecap="round" d="M75,105 C95,85 115,115 135,95" />
  </g>
  
  <!-- Lightning bolt symbol with gradient (representing adaptive learning) -->
  <path fill="url(#lightningGradient)" filter="url(#glow)" d="M130,80 L110,115 L126,118 L100,155 L108,130 L92,127 L130,80" />
  
  <!-- No text in the SVG - rely on the README to display the name -->
</svg> 